<?xml version="1.0" encoding="UTF-8" standalone="no"?>
<svg
   xmlns:dc="http://purl.org/dc/elements/1.1/"
   xmlns:cc="http://creativecommons.org/ns#"
   xmlns:rdf="http://www.w3.org/1999/02/22-rdf-syntax-ns#"
   xmlns:svg="http://www.w3.org/2000/svg"
   xmlns="http://www.w3.org/2000/svg"
   id="svg8"
   version="1.1"
   viewBox="0 0 14.920639 25.477091"
   height="25.477091mm"
   width="14.920638mm">
  <defs
     id="defs2" />
  <metadata
     id="metadata5">
    <rdf:RDF>
      <cc:Work
         rdf:about="">
        <dc:format>image/svg+xml</dc:format>
        <dc:type
           rdf:resource="http://purl.org/dc/dcmitype/StillImage" />
        <dc:title></dc:title>
      </cc:Work>
    </rdf:RDF>
  </metadata>
  <g
     transform="translate(-78.264882,-94.317261)"
     id="layer1">
    <path
       id="path62"
       d="m 83.353259,119.62446 c -1.348236,-0.35682 -2.431176,-1.03916 -3.276097,-2.0642 -1.904043,-2.30993 -2.280995,-5.86733 -1.256766,-11.86044 0.373045,-2.18281 0.794282,-5.48464 0.936082,-7.337383 0.271877,-3.55231 0.627093,-4.912476 0.911123,-3.488795 0.08471,0.424607 0.233535,1.248262 0.330721,1.830346 0.09718,0.582083 0.353094,1.406358 0.568686,1.831723 0.391515,0.772463 0.392504,0.772728 0.824535,0.22076 0.544545,-0.695717 2.215537,-1.391025 3.342966,-1.391025 1.127429,0 2.798421,0.695308 3.342966,1.391025 0.432031,0.551968 0.43302,0.551703 0.824535,-0.22076 0.215592,-0.425365 0.471501,-1.24964 0.568686,-1.831723 0.09719,-0.582084 0.24601,-1.405739 0.330721,-1.830346 0.28403,-1.423681 0.639246,-0.06351 0.911122,3.488795 0.141801,1.852743 0.563038,5.154573 0.936083,7.337383 1.277146,7.47302 0.295522,11.64059 -3.156626,13.40175 -1.187101,0.60561 -4.696664,0.90455 -6.138737,0.52289 z m 3.77881,-19.32025 c -0.06212,-0.322587 -0.399451,-0.425222 -1.39756,-0.425222 -0.998109,0 -1.335435,0.102635 -1.39756,0.425222 -0.06733,0.34964 0.181076,0.42522 1.39756,0.42522 1.216484,0 1.464895,-0.0756 1.39756,-0.42522 z"
       style="fill:#81644f;stroke-width:0.26458332" />
    <path
       id="path56"
       d="m 14.607336,108.57479 c -1.589047,-0.73701 -3.005194,-1.9522 -3.601259,-3.09023 -0.418673,-0.79935 -0.88933,-4.9054 -0.871924,-7.606744 0.01221,-1.895505 0.178913,-1.736406 0.891223,0.850589 0.228982,0.831626 0.712217,1.843655 1.073856,2.248955 0.603198,0.67603 0.680554,0.6984 0.936226,0.27081 0.44135,-0.73811 2.757862,-1.782854 3.953128,-1.782854 1.195266,0 3.511778,1.044744 3.953127,1.782854 0.255673,0.42759 0.333029,0.40522 0.936226,-0.27081 0.361639,-0.4053 0.844875,-1.417329 1.073857,-2.248955 0.71231,-2.586995 0.87901,-2.746094 0.891223,-0.850589 0.01741,2.701344 -0.453252,6.807394 -0.871924,7.606744 -0.936139,1.78731 -4.078767,3.76517 -5.982509,3.76517 -0.509323,0 -1.580886,-0.30372 -2.38125,-0.67494 z m 1.250719,-4.61156 c 0.862411,-0.67837 1.412068,-0.66782 2.317639,0.0445 0.855173,0.67268 1.549209,0.42161 1.659557,-0.60036 0.103562,-0.95911 -0.276396,-1.32923 -1.622781,-1.58076 -1.414032,-0.26417 -3.564661,0.0598 -3.898926,0.58732 -0.327433,0.51674 -0.286603,1.39224 0.08212,1.76096 0.436949,0.43695 0.6831,0.40133 1.462386,-0.21166 z"
       style="fill:#81644f;stroke-width:0.26458332" />
    <path
       id="path58"
       d="m 35.822084,111.54315 c -2.794356,-1.3665 -3.788505,-2.2774 -3.788505,-3.47125 0,-0.39904 0.358057,-1.88874 0.795682,-3.31043 0.775277,-2.51861 0.791302,-2.6806 0.62485,-6.316398 -0.09396,-2.052322 -0.08254,-3.649751 0.02538,-3.549843 0.107917,0.09991 0.35395,1.09 0.546741,2.200204 0.192791,1.110204 0.547936,2.319833 0.789211,2.688066 l 0.438683,0.669511 0.504305,-0.541306 c 0.721795,-0.774756 2.788979,-1.626252 3.948066,-1.626252 1.159087,0 3.226271,0.851496 3.948066,1.626252 l 0.504305,0.541306 0.438683,-0.669511 c 0.241275,-0.368233 0.59642,-1.577862 0.789211,-2.688066 0.192791,-1.110204 0.438824,-2.100295 0.546741,-2.200204 0.107916,-0.09991 0.119336,1.497521 0.02538,3.549843 -0.166451,3.635798 -0.150426,3.797788 0.62485,6.316398 0.946621,3.07524 0.980872,3.80052 0.224867,4.76163 -0.883169,1.12277 -5.579429,3.31444 -7.102101,3.31444 -0.944322,0 -1.864674,-0.30669 -3.884412,-1.29439 z m 5.33962,-10.0827 c 0.102209,-0.16537 -0.443429,-0.26458 -1.455208,-0.26458 -1.011779,0 -1.557417,0.0992 -1.455208,0.26458 0.08994,0.14552 0.74478,0.26459 1.455208,0.26459 0.710428,0 1.365271,-0.11907 1.455208,-0.26459 z"
       style="fill:#81644f;stroke-width:0.26458335" />
    <path
       id="path60"
       d="m 59.069228,116.14409 c -1.400405,-0.40587 -3.331924,-1.89241 -3.899162,-3.00087 -0.292726,-0.57203 -0.61668,-1.66237 -0.719896,-2.42297 -0.107976,-0.79569 -0.47964,-1.81259 -0.87526,-2.3948 -0.857932,-1.26256 -0.86659,-2.14196 -0.03681,-3.73819 0.749283,-1.44137 1.465878,-4.0143 1.465878,-5.263218 0,-1.233173 0.536089,-3.556262 0.785142,-3.402338 0.11624,0.07184 0.296811,0.814666 0.40127,1.650724 0.192293,1.539062 0.844188,3.513972 1.159922,3.513972 0.09471,0 0.326411,-0.24692 0.51488,-0.5487 1.065612,-1.706318 5.647377,-1.706318 6.712989,0 0.188469,0.30178 0.420165,0.5487 0.51488,0.5487 0.315734,0 0.967629,-1.97491 1.159922,-3.513972 0.104459,-0.836058 0.28503,-1.578884 0.40127,-1.650724 0.249053,-0.153924 0.785142,2.169165 0.785142,3.402338 0,1.248918 0.716595,3.821848 1.465878,5.263218 0.829784,1.59623 0.821126,2.47563 -0.03681,3.73819 -0.39562,0.58221 -0.767284,1.59911 -0.87526,2.3948 -0.268638,1.97959 -1.052593,3.32772 -2.509702,4.31579 -1.968503,1.33486 -4.263677,1.73134 -6.414281,1.10805 z m 4.136838,-13.48939 c 0,-0.45042 -1.963549,-0.77417 -2.984905,-0.49216 -1.555416,0.42947 -1.154061,0.71715 1.000529,0.71715 1.091407,0 1.984376,-0.10125 1.984376,-0.22499 z"
       style="fill:#81644f;stroke-width:0.26458335" />
  </g>
</svg>
