<?xml version="1.0" encoding="UTF-8" standalone="no"?>
<svg
   xmlns:dc="http://purl.org/dc/elements/1.1/"
   xmlns:cc="http://creativecommons.org/ns#"
   xmlns:rdf="http://www.w3.org/1999/02/22-rdf-syntax-ns#"
   xmlns:svg="http://www.w3.org/2000/svg"
   xmlns="http://www.w3.org/2000/svg"
   id="svg8"
   version="1.1"
   viewBox="0 0 11.870531 27.64896"
   height="27.64896mm"
   width="11.870531mm">
  <defs
     id="defs2" />
  <metadata
     id="metadata5">
    <rdf:RDF>
      <cc:Work
         rdf:about="">
        <dc:format>image/svg+xml</dc:format>
        <dc:type
           rdf:resource="http://purl.org/dc/dcmitype/StillImage" />
        <dc:title></dc:title>
      </cc:Work>
    </rdf:RDF>
  </metadata>
  <g
     transform="translate(-129.93441,-190.50589)"
     id="layer1">
    <path
       id="path20"
       d="m 134.34477,217.82412 c -1.13372,-0.86112 -3.00174,-5.96362 -3.75348,-10.25261 -0.51781,-2.9543 -0.84194,-11.89868 -0.54173,-14.94896 l 0.20832,-2.11666 0.35694,2.05529 c 0.42926,2.47165 0.98616,3.89783 1.52206,3.89783 0.21739,0 0.82768,-0.25513 1.35619,-0.56696 1.30557,-0.77031 3.44764,-0.77031 4.75321,0 0.52851,0.31183 1.1388,0.56696 1.35619,0.56696 0.5359,0 1.0928,-1.42618 1.52206,-3.89783 l 0.35694,-2.05529 0.20832,2.11666 c 0.30021,3.05028 -0.0239,11.99466 -0.54173,14.94896 -0.75174,4.28899 -2.61976,9.39149 -3.75348,10.25261 -0.23948,0.1819 -0.92569,0.33073 -1.5249,0.33073 -0.59922,0 -1.28543,-0.14883 -1.52491,-0.33073 z m 2.70564,-20.20152 c -1.02729,-0.3156 -1.37089,-0.3154 -2.38125,0.001 l -1.18073,0.37022 2.38125,-0.001 2.38124,-0.001 -1.20051,-0.36881 z"
       style="fill:#81644f;stroke-width:0.26458332" />
  </g>
</svg>
