<?xml version="1.0" encoding="UTF-8" standalone="no"?>
<svg
   xmlns:dc="http://purl.org/dc/elements/1.1/"
   xmlns:cc="http://creativecommons.org/ns#"
   xmlns:rdf="http://www.w3.org/1999/02/22-rdf-syntax-ns#"
   xmlns:svg="http://www.w3.org/2000/svg"
   xmlns="http://www.w3.org/2000/svg"
   id="svg8"
   version="1.1"
   viewBox="-0.3 0 6.03896 5.66078"
   height="5.66078mm"
   width="6.03896mm">
  <defs
     id="defs2" />
  <metadata
     id="metadata5">
    <rdf:RDF>
      <cc:Work
         rdf:about="">
        <dc:format>image/svg+xml</dc:format>
        <dc:type
           rdf:resource="http://purl.org/dc/dcmitype/StillImage" />
        <dc:title></dc:title>
      </cc:Work>
    </rdf:RDF>
  </metadata>
  <g
     transform="translate(-197.37164,-234.17238)"
     id="layer1">
    <path
       id="path45"
       d="m 198.63146,239.36999 c -1.10121,-0.58641 -1.5521,-1.67027 -1.55682,-3.7424 l -0.003,-1.45521 0.36085,1.01187 c 0.47505,1.33211 0.49435,1.34371 1.43028,0.85972 1.01033,-0.52246 1.44637,-0.52246 2.4567,0 0.93593,0.48399 0.95523,0.47239 1.43028,-0.85972 l 0.36085,-1.01187 -0.003,1.45521 c -0.005,2.07213 -0.45561,3.15599 -1.55683,3.7424 -1.15972,0.61756 -1.75895,0.61756 -2.91867,0 z m 2.58686,-2.1549 c -0.0526,-0.27335 -0.40358,-0.39688 -1.12752,-0.39688 -0.72394,0 -1.07488,0.12353 -1.12752,0.39688 -0.0589,0.30583 0.19976,0.39687 1.12752,0.39687 0.92776,0 1.18641,-0.091 1.12752,-0.39687 z"
       style="fill:#826550;stroke-width:0.26458335" />
    <path
       id="path47"
       d="m 204.1744,229.59178 c -0.64487,-0.34542 -1.22419,-0.78315 -1.28738,-0.97272 -0.0896,-0.26883 0.004,-0.2808 0.42749,-0.0544 1.05674,0.56555 2.1363,0.34909 3.03806,-0.60914 0.78,-0.82886 0.97095,-0.89942 2.4339,-0.89942 1.46296,0 1.65391,0.0706 2.43391,0.89942 0.90176,0.95823 1.98132,1.17469 3.03806,0.60914 0.42303,-0.2264 0.5171,-0.21443 0.42749,0.0544 -0.0632,0.18957 -0.64251,0.6273 -1.28738,0.97272 -1.34738,0.72172 -3.35109,0.70662 -4.16659,-0.0314 -0.43795,-0.39633 -0.50879,-0.39646 -0.90361,-0.002 -0.73865,0.73865 -2.80594,0.7551 -4.15395,0.033 z"
       style="fill:#81644f;stroke-width:0.26458332" />
    <path
       id="path43"
       d="m 192.9246,226.08435 c -0.68736,-0.68736 -0.23819,-1.63415 0.87313,-1.84047 0.73654,-0.13674 0.66308,-0.82927 -0.10726,-1.01112 -0.86758,-0.20481 -1.30137,-0.92385 -0.92137,-1.52727 0.56408,-0.8957 1.95467,-0.59503 1.95467,0.42263 0,0.2332 0.80048,1.23065 1.77884,2.21657 1.57274,1.58489 1.70449,1.79257 1.13707,1.79257 -0.35985,0 -1.01499,-0.36174 -1.49139,-0.82349 -0.86371,-0.83714 -1.42452,-0.84011 -1.42452,-0.008 0,0.57606 -0.50189,1.09564 -1.05834,1.09564 -0.23283,0 -0.5662,-0.14288 -0.74083,-0.3175 z m 1.15196,-0.49931 c 0.27266,-0.44117 -0.34058,-0.94708 -0.70557,-0.58208 -0.30531,0.30531 -0.11423,0.86972 0.29444,0.86972 0.12835,0 0.31335,-0.12944 0.41113,-0.28764 z m 0,-3.175 c 0.27266,-0.44117 -0.34058,-0.94708 -0.70557,-0.58208 -0.30531,0.30531 -0.11423,0.86972 0.29444,0.86972 0.12835,0 0.31335,-0.12944 0.41113,-0.28764 z m 1.55996,0.79531 c -0.27591,-0.44644 1.21257,-1.83059 1.96857,-1.83059 0.64985,0 0.64112,0.0251 -0.36778,1.05834 -1.09577,1.12217 -1.31821,1.22947 -1.60079,0.77225 z"
       style="fill:#826651;stroke-width:0.26458332" />
  </g>
</svg>
